PathFileType	4	(X/Y/Z)	D:\Share\Shared_Data\Ergonomics\Sit To Stand Pertubation\S3\Unperturbed.trc
DataRate	CameraRate	NumFrames	NumMarkers	Units	OrigDataRate	OrigDataStartFrame	OrigNumFrames	
100	100	16	18	m	100	3567	231
Frame#	Time	R_Thigh			R_ASIS			R_Pelvis			V_Sacral			L_Pelvis			L_ASIS			Clavical			R_Acromium			L_Acromium			Sternum			Torso			R_Thigh_Med			R_Thigh_Lat			R_Shank_Med			R_Shank_Lat			R_Shank			R_Heel			R_Toe			
		X1	Y1	Z1	X2	Y2	Z2	X3	Y3	Z3	X4	Y4	Z4	X5	Y5	Z5	X6	Y6	Z6	X7	Y7	Z7	X8	Y8	Z8	X9	Y9	Z9	X10	Y10	Z10	X11	Y11	Z11	X12	Y12	Z12	X13	Y13	Z13	X14	Y14	Z14	X15	Y15	Z15	X16	Y16	Z16	X17	Y17	Z17	X18	Y18	Z18	

3567	35.66	0.14650305	0.58166101	0.10754754	-0.0046186547	0.64019434	0.14029706	-0.11495451	0.63746454	0.19673593	-0.22608539	0.64658002	0.01089857	-0.11815061	0.65862964	-0.18904311	-0.010056136	0.64759521	-0.13734698	0.072446922	1.0073818	0.0030404954	0.037883221	1.0784175	0.17199498	0.050894466	1.0738704	-0.154886	0.071359039	0.92554663	0.0067382288	0.0755914	0.99221674	-0.060596134	0.33107739	0.46896112	0.072938004	0.31269592	0.44995676	0.19020634	0.25793655	0.1079506	0.093961517	0.23432178	0.099981995	0.17307483	0.25405991	0.27459641	0.19553487	0.18021953	0.050527805	0.11960283	0.39722641	0.055140373	0.13762741
3568	35.67	0.14644797	0.5814101	0.10729359	-0.0029376681	0.63887634	0.14014679	-0.11305412	0.63839435	0.1967177	-0.22370215	0.64959137	0.011183142	-0.11589862	0.65949744	-0.18962964	-0.007729147	0.64656665	-0.13766708	0.081924423	1.005153	0.0031829796	0.048607769	1.0767457	0.17174046	0.061601955	1.0721505	-0.15384581	0.079487518	0.92284314	0.0067913465	0.085059486	0.98971777	-0.060480015	0.33091049	0.46884171	0.073105125	0.31241312	0.44989331	0.19033243	0.25777783	0.10793161	0.09401857	0.23422391	0.099872833	0.17315498	0.25382846	0.27454694	0.19565091	0.18013884	0.050385502	0.11962573	0.39714078	0.054777573	0.13746613
3569	35.68	0.14637357	0.58113275	0.10700623	-0.0012197405	0.63743439	0.14008514	-0.11104964	0.63934698	0.19667822	-0.22103125	0.65269543	0.011369156	-0.11339156	0.66037823	-0.19041684	-0.0051453085	0.6454364	-0.1380329	0.09170681	1.0027358	0.0032616813	0.059700397	1.0749249	0.17144237	0.072668739	1.0702841	-0.15287088	0.087930382	0.92007947	0.0068949161	0.09477076	0.98706268	-0.06036451	0.3307334	0.46868652	0.073306709	0.31210321	0.44981561	0.19048676	0.25759341	0.10790955	0.094075264	0.234105	0.099730438	0.17325066	0.25356493	0.274474	0.19578221	0.18003819	0.050259724	0.11968504	0.39704379	0.054400448	0.13725996
3570	35.69	0.14629305	0.58083984	0.10668517	0.00060455513	0.63587531	0.14011951	-0.10891304	0.64032373	0.19662029	-0.21804135	0.65586169	0.011421818	-0.11058586	0.66127271	-0.19138445	-0.0022762306	0.64419293	-0.13845218	0.10176944	1.0001473	0.0032892094	0.071130913	1.0729543	0.17109677	0.084064957	1.0682246	-0.15202728	0.096651367	0.91727118	0.0070257959	0.10466949	0.98425964	-0.06026149	0.33056015	0.46848907	0.073556664	0.31178098	0.44972079	0.19068446	0.25738361	0.10788378	0.094128044	0.23396736	0.09955619	0.17335732	0.25327995	0.27437363	0.19593459	0.17991843	0.050190784	0.11980928	0.39693466	0.054037029	0.13702258
3571	35.7	0.14623064	0.58055029	0.10633344	0.0026478882	0.6342204	0.14025198	-0.10660676	0.64132977	0.19654907	-0.21470552	0.65908051	0.011337639	-0.10743897	0.66218365	-0.19245366	0.00090006614	0.64282684	-0.13892717	0.11208533	0.99740546	0.0032772901	0.082862442	1.07084	0.17070297	0.095758949	1.0659563	-0.15133423	0.10560189	0.91438763	0.0071308861	0.11469873	0.98132068	-0.060184143	0.33041092	0.46824802	0.073872627	0.31146921	0.44960593	0.19094653	0.25715356	0.10785425	0.094173798	0.23382129	0.099357864	0.17346733	0.25298997	0.2742435	0.19611526	0.17978238	0.05023307	0.12003602	0.39681458	0.053744827	0.13679155
3572	35.71	0.14622415	0.58029321	0.10595926	0.0050167546	0.63249841	0.14047842	-0.10408469	0.64237335	0.196472	-0.21100002	0.66235516	0.011131556	-0.10391187	0.66311658	-0.19351091	0.0044022698	0.64134058	-0.13945219	0.12262769	0.99452997	0.0032363093	0.094853928	1.0685956	0.1702632	0.10771976	1.0634911	-0.15077722	0.11474658	0.91138293	0.0071561418	0.12481221	0.97826135	-0.060143883	0.33031049	0.46797064	0.074274612	0.31119763	0.44946735	0.19129956	0.25691519	0.10782185	0.094210686	0.23367963	0.099148796	0.17357013	0.25271893	0.27408331	0.19633304	0.17963495	0.050448025	0.12040781	0.39668765	0.053572464	0.13660266
3573	35.72	0.14632205	0.5801051	0.10557741	0.0077776413	0.63074017	0.14078821	-0.10129529	0.64346698	0.19639812	-0.20690378	0.66569684	0.010828336	-0.099970741	0.66408099	-0.1944632	0.0082437401	0.63975031	-0.14001453	0.1333714	0.99154413	0.0031753139	0.10706261	1.066241	0.16978204	0.11991836	1.0608597	-0.15032771	0.12409303	0.90824677	0.0070912914	0.13499515	0.97510303	-0.060141327	0.33028598	0.4676759	0.074781982	0.31100168	0.44929977	0.191774	0.25668774	0.10778845	0.094238815	0.23355241	0.098944107	0.17365388	0.25249785	0.27389316	0.19659766	0.17948312	0.050891094	0.12096245	0.39656186	0.053531155	0.13647614
3574	35.73	0.14657968	0.58002521	0.10521196	0.010961802	0.62898016	0.1411655	-0.098185883	0.64462756	0.19633629	-0.20239926	0.66912067	0.01045709	-0.095589867	0.66509113	-0.19526921	0.012429911	0.63808374	-0.14059796	0.1442933	0.98847565	0.0031018834	0.11944671	1.0638041	0.16926596	0.13232767	1.0581053	-0.14995392	0.13368544	0.90501758	0.0069755564	0.14527985	0.97187335	-0.060160645	0.33036728	0.46739175	0.075413879	0.31092007	0.44909552	0.19240034	0.25649619	0.10775637	0.094260437	0.23344757	0.098756729	0.1737086	0.25236171	0.2736713	0.19691939	0.17933633	0.051590839	0.12171551	0.39644812	0.053601299	0.13641978
3575	35.74	0.14705872	0.58009167	0.10489967	0.014575142	0.62725775	0.14158951	-0.094706619	0.64587555	0.19629347	-0.19747464	0.67264355	0.010047606	-0.090755035	0.66616797	-0.19593224	0.01695649	0.63637817	-0.14118559	0.15537143	0.98535699	0.0030217628	0.1319684	1.0613174	0.16872342	0.14492154	1.0552773	-0.14962637	0.14356502	0.90175439	0.0068614097	0.15572882	0.96860474	-0.060176582	0.3305914	0.4671412	0.07619825	0.31099258	0.44884372	0.19320462	0.25636737	0.1077272	0.094279388	0.23337265	0.098596008	0.17372748	0.25234464	0.27341272	0.19730849	0.17920667	0.052515388	0.12263167	0.3963591	0.0537467	0.13643491
3576	35.75	0.1478252	0.5803382	0.10469149	0.018597551	0.62561426	0.14203502	-0.090814003	0.64723529	0.19627405	-0.19212749	0.67628174	0.0096277809	-0.085466385	0.66734015	-0.19648099	0.021807922	0.63467853	-0.14176172	0.16658401	0.98222595	0.0029389534	0.1445959	1.0588198	0.16816431	0.15767348	1.0524276	-0.14932045	0.15374304	0.89851367	0.0067857895	0.16639249	0.96533209	-0.0601675	0.33100424	0.46693185	0.077176453	0.31125742	0.44852994	0.1942045	0.25632504	0.10770036	0.094299767	0.23333421	0.098466942	0.17370743	0.25247646	0.27310858	0.19777454	0.17910825	0.053549023	0.12360555	0.3963071	0.05392231	0.13651837
3577	35.76	0.14894331	0.5807868	0.10465156	0.022986151	0.62409021	0.14247307	-0.086473839	0.64873328	0.19628003	-0.18636769	0.68004883	0.0092216711	-0.079739052	0.66864227	-0.19695287	0.026956944	0.63303815	-0.14231155	0.17790913	0.97912585	0.0028569319	0.15730261	1.0563527	0.16759883	0.17055498	1.0496073	-0.14901588	0.16420021	0.8953443	0.006765388	0.1772827	0.96209186	-0.060122242	0.33165561	0.46676437	0.078390739	0.31174857	0.44813611	0.19540564	0.25638644	0.10767225	0.094323959	0.23333736	0.098368187	0.1736496	0.25278145	0.27274796	0.19832417	0.17905434	0.054531105	0.12449584	0.39630267	0.054076622	0.13666191
3578	35.77	0.1504689	0.58144122	0.10485265	0.027690933	0.62272778	0.14287262	-0.081663712	0.65039703	0.19631233	-0.1802191	0.68395306	0.0088478432	-0.073602158	0.670112	-0.19738252	0.032365387	0.63151666	-0.14282094	0.18932338	0.97610248	0.0027797022	0.17006143	1.0539581	0.1670352	0.18353374	1.0468652	-0.1486956	0.17489229	0.89228961	0.0067994046	0.18837405	0.95892218	-0.060038624	0.33259271	0.46664499	0.079869247	0.31249323	0.44764233	0.19679759	0.25656076	0.10763657	0.094350853	0.23338562	0.098290909	0.1735607	0.25327829	0.27232034	0.19895744	0.17905338	0.055339935	0.1251976	0.39635373	0.054150536	0.13684885
3579	35.78	0.15244347	0.5822821	0.10536501	0.032668781	0.62157465	0.14320245	-0.076375793	0.65225244	0.19637224	-0.17371924	0.68799652	0.0085184441	-0.067096977	0.67178381	-0.19779539	0.037986244	0.63017651	-0.14327715	0.20079536	0.97319916	0.0027107756	0.18283778	1.0516779	0.16647737	0.19657159	1.0442479	-0.14834622	0.18575255	0.88938843	0.0068718371	0.19961432	0.95586292	-0.059919163	0.33385559	0.46658728	0.08162043	0.31351062	0.44702975	0.19834985	0.25684787	0.10758567	0.094375092	0.2334801	0.098220833	0.17345255	0.25397858	0.27181775	0.19966446	0.17910695	0.055932907	0.125677	0.39646518	0.054085541	0.13705368
3580	35.79	0.15488861	0.58326874	0.10623901	0.037885258	0.6206828	0.14343492	-0.070620605	0.65432013	0.19646173	-0.16691782	0.69217273	0.0082391701	-0.060275497	0.67368073	-0.19820479	0.043767712	0.62907855	-0.14367088	0.2122767	0.97045532	0.0026511164	0.19558633	1.0495492	0.16592368	0.20962276	1.0417975	-0.14795866	0.19669362	0.88667584	0.0069555674	0.2109328	0.9529563	-0.059767742	0.33547195	0.46660709	0.083630142	0.31481146	0.44628488	0.20001015	0.25723782	0.10751256	0.094388069	0.23361913	0.098143036	0.17333867	0.25488365	0.27123663	0.20042398	0.17920955	0.056324539	0.12595283	0.39663617	0.053854473	0.13725256
3581	35.8	0.15780499	0.58434778	0.10748592	0.043311226	0.62010547	0.14355196	-0.064430962	0.65661151	0.19658206	-0.15987411	0.69646527	0.0080094929	-0.053199364	0.67580792	-0.19861299	0.049658672	0.62827649	-0.14399855	0.22369986	0.96790863	0.0025987673	0.20825162	1.0476053	0.16536812	0.22263326	1.0395527	-0.14752855	0.20761151	0.88418475	0.0070204015	0.22224747	0.95024731	-0.059588066	0.33745166	0.46671741	0.085858307	0.31639966	0.44540292	0.20170853	0.25771088	0.1074124	0.094379852	0.23379884	0.098046989	0.17322902	0.25598257	0.2705809	0.20120395	0.1793499	0.056553215	0.12606764	0.39685791	0.053483406	0.13743402
3582	35.81	0.16118048	0.58546808	0.10906242	0.04892057	0.61989142	0.1435513	-0.057863705	0.65912524	0.19673253	-0.15265398	0.70084723	0.0078238893	-0.045938496	0.67815161	-0.19901497	0.055613873	0.62781165	-0.14426282	0.23498735	0.96559802	0.0025497482	0.22076913	1.0458757	0.16480249	0.23554036	1.037549	-0.14705652	0.21839265	0.88194708	0.0070436301	0.23346999	0.94778326	-0.059383839	0.33978369	0.46691937	0.088238754	0.31827386	0.44439029	0.20336653	0.25823889	0.10728368	0.094342072	0.23401239	0.097930542	0.17312663	0.25725336	0.26986472	0.20196394	0.17951328	0.056660316	0.12606827	0.39711517	0.053030743	0.13759639
